<svg width="736.444" height="166" viewBox="0 0 736.444 166" xmlns="http://www.w3.org/2000/svg"><defs><linearGradient x1="13.35%" y1="19.285%" x2="93.641%" y2="32.831%" id="a"><stop stop-color="#FF6126" offset="0%"/><stop stop-color="#B33100" offset="100%"/></linearGradient><linearGradient x1="93.641%" y1="47.74%" x2="13.35%" y2="45.957%" id="b"><stop stop-color="#B33100" offset="0%"/><stop stop-color="#802300" offset="100%"/></linearGradient></defs><g fill="none" fill-rule="evenodd"><path d="M22.55 10.037 2.122 133.2c-.994 5.994 3.059 11.658 9.052 12.652a11 11 0 0 0 1.8.148h110.903L148.114 0H34.388a12 12 0 0 0-11.839 10.037Z" fill="#EF4923"/><path d="M22.55 10.037 2.122 133.2c-.994 5.994 3.059 11.658 9.052 12.652a11 11 0 0 0 1.8.148h110.903L148.114 0H34.388a12 12 0 0 0-11.839 10.037Z" fill="url(#a)"/><path fill="url(#b)" d="M92.191 20h52.603l3.32-20z"/><path d="M92.191 20 67.977 166H182.53a11 11 0 0 0 10.851-9.199l20.778-125.164c.905-5.448-2.779-10.598-8.227-11.502a10 10 0 0 0-1.638-.135H92.191Z" fill="url(#a)"/><path fill="currentColor" d="m236.493 24.738 2.503-14.753h58.615l-2.501 14.753h-20.285l-8.694 52.688h-18.047l8.694-52.688z"/><path d="m282.65 77.425 8.43-50.58h17.651l-1.582 9.616h.527c1.515-3.557 3.414-6.159 5.697-7.805 2.284-1.646 4.776-2.47 7.475-2.47.791 0 1.553.061 2.29.181.735.121 1.464.28 2.19.477l-2.635 15.544c-.856-.33-1.922-.564-3.195-.709a31 31 0 0 0-3.39-.214c-1.758 0-3.399.401-4.925 1.202-1.525.802-2.82 1.922-3.885 3.36s-1.774 3.123-2.124 5.054l-4.347 26.344H282.65ZM342.825 66.756c1.361 0 2.7-.285 4.017-.856a9.466 9.466 0 0 0 3.392-2.47c.944-1.075 1.548-2.382 1.811-3.919l.658-4.215c-.482.198-1.015.38-1.596.544-.582.164-1.186.324-1.81.477a37.37 37.37 0 0 1-1.977.428c-.692.132-1.4.264-2.124.395-1.449.22-2.667.576-3.656 1.07-.987.494-1.756 1.098-2.305 1.811a5.124 5.124 0 0 0-1.02 2.388c-.198 1.383.126 2.453.971 3.211.845.757 2.06 1.136 3.64 1.136m-7.904 11.46c-3.206 0-5.956-.533-8.25-1.598-2.293-1.064-3.963-2.689-5.005-4.873-1.043-2.184-1.278-4.945-.707-8.282.46-2.766 1.327-5.126 2.601-7.08 1.273-1.954 2.853-3.557 4.741-4.808 1.888-1.25 4.012-2.212 6.373-2.88 2.36-.67 4.857-1.104 7.491-1.302 2.854-.219 5.17-.494 6.948-.823 1.778-.33 3.107-.779 3.985-1.35.877-.57 1.405-1.339 1.581-2.305v-.132c.197-1.317-.148-2.327-1.038-3.03-.889-.702-2.123-1.054-3.704-1.054-1.713 0-3.189.374-4.43 1.12-1.24.747-2.09 1.91-2.55 3.491h-16.73c.702-3.074 2.145-5.91 4.331-8.513 2.183-2.6 5.092-4.687 8.726-6.256 3.633-1.57 7.974-2.355 13.024-2.355 3.6 0 6.761.423 9.484 1.268 2.721.845 4.977 2.02 6.767 3.523 1.79 1.504 3.05 3.26 3.787 5.27.735 2.008.905 4.187.51 6.536l-5.796 34.642h-16.99l1.184-7.113h-.395c-1.318 1.89-2.795 3.414-4.43 4.578a16.795 16.795 0 0 1-5.334 2.535c-1.922.527-3.98.79-6.174.79M396.969 48.974l-4.741 28.452H374.05l8.43-50.581h17.255l-1.58 9.616h.527c1.601-3.227 3.945-5.746 7.03-7.557 3.084-1.812 6.493-2.717 10.225-2.717 3.577 0 6.553.812 8.923 2.436 2.371 1.625 4.05 3.864 5.04 6.718.987 2.854 1.163 6.125.526 9.813l-5.4 32.272h-18.178l4.743-28.452c.416-2.502.113-4.467-.906-5.894-1.022-1.427-2.695-2.141-5.022-2.141-1.473 0-2.815.324-4.035.97-1.219.65-2.228 1.572-3.03 2.768-.8 1.197-1.345 2.629-1.63 4.297M483.03 43.31h-16.335c.088-1.054-.098-1.954-.559-2.701a4.505 4.505 0 0 0-1.927-1.712c-.822-.395-1.75-.592-2.782-.592-1.8 0-3.436.4-4.907 1.202-1.47.801-2.294 1.849-2.469 3.144-.11.506.054.977.493 1.416.44.44 1.592.846 3.458 1.219l10.011 1.844c5.005.922 8.655 2.596 10.95 5.022 2.293 2.426 3.122 5.625 2.486 9.599-.593 3.447-2.108 6.41-4.545 8.891s-5.527 4.385-9.27 5.713c-3.743 1.328-7.876 1.993-12.398 1.993-7.969 0-13.935-1.592-17.898-4.775-3.963-3.183-5.768-7.344-5.417-12.481h17.651c.044 1.646.598 2.881 1.663 3.705 1.064.823 2.487 1.257 4.264 1.301 1.932.065 3.623-.324 5.072-1.169 1.45-.845 2.26-1.905 2.436-3.178.066-.725-.247-1.273-.938-1.647-.692-.373-2.003-.746-3.935-1.119l-8.693-1.581c-5.006-.9-8.65-2.706-10.933-5.417-2.284-2.711-3.074-6.174-2.372-10.389.571-3.359 1.938-6.18 4.1-8.463 2.162-2.284 5.011-4.012 8.546-5.187 3.534-1.174 7.617-1.762 12.25-1.762 7.574 0 13.31 1.521 17.206 4.561 3.897 3.041 5.493 7.228 4.791 12.563M513.276 9.985 502.08 77.426h-18.177l11.196-67.441zM531.31 66.756c1.361 0 2.7-.285 4.017-.856a9.466 9.466 0 0 0 3.392-2.47c.944-1.075 1.548-2.382 1.811-3.919l.66-4.215a15.09 15.09 0 0 1-1.598.544c-.582.164-1.186.324-1.81.477a37.37 37.37 0 0 1-1.977.428c-.692.132-1.4.264-2.124.395-1.449.22-2.667.576-3.656 1.07-.987.494-1.756 1.098-2.305 1.811a5.124 5.124 0 0 0-1.02 2.388c-.198 1.383.126 2.453.971 3.211.845.757 2.06 1.136 3.64 1.136m-7.904 11.46c-3.206 0-5.956-.533-8.25-1.598-2.293-1.064-3.963-2.689-5.005-4.873-1.043-2.184-1.278-4.945-.707-8.282.46-2.766 1.327-5.126 2.601-7.08 1.273-1.954 2.853-3.557 4.741-4.808 1.89-1.25 4.012-2.212 6.373-2.88 2.36-.67 4.857-1.104 7.491-1.302 2.854-.219 5.17-.494 6.95-.823 1.776-.33 3.105-.779 3.983-1.35.877-.57 1.405-1.339 1.581-2.305v-.132c.197-1.317-.148-2.327-1.038-3.03-.889-.702-2.123-1.054-3.704-1.054-1.713 0-3.189.374-4.43 1.12-1.24.747-2.09 1.91-2.55 3.491h-16.73c.702-3.074 2.145-5.91 4.331-8.513 2.183-2.6 5.092-4.687 8.726-6.256 3.633-1.57 7.974-2.355 13.024-2.355 3.6 0 6.761.423 9.484 1.268 2.721.845 4.977 2.02 6.767 3.523 1.79 1.504 3.05 3.26 3.787 5.27.735 2.008.905 4.187.51 6.536l-5.796 34.642h-16.99l1.184-7.113h-.395c-1.317 1.89-2.795 3.414-4.43 4.578a16.795 16.795 0 0 1-5.334 2.535c-1.92.527-3.98.79-6.174.79M592.944 14.727l-2.011 12.118h8.729l-2.24 13.172h-8.675l-3.51 21.141c-1.442 7.006 7.498 3.141 8.16 2.953l-2.125 12.748a82.49 82.49 0 0 1-2.626.616c-1.547.34-3.342.565-5.384.675-4.258.198-7.722-.253-10.39-1.35-2.666-1.098-4.511-2.816-5.532-5.154-1.02-2.338-1.201-5.263-.543-8.776l3.783-22.853h-6.483l2.24-13.172h6.423l2.006-12.118h18.178ZM615.32 21.576c-2.46 0-4.447-.818-5.962-2.453-1.514-1.636-2.074-3.584-1.679-5.845.395-2.305 1.603-4.265 3.622-5.879 2.02-1.613 4.26-2.42 6.72-2.42 2.48 0 4.455.807 5.926 2.42 1.47 1.614 2.02 3.574 1.646 5.88-.35 2.26-1.53 4.208-3.54 5.844-2.009 1.635-4.254 2.453-6.734 2.453Zm-18.31 55.85 8.43-50.58h18.177l-8.43 50.58H597.01ZM649.843 64.912c1.58 0 3.024-.516 4.33-1.548 1.306-1.031 2.426-2.502 3.359-4.412.933-1.91 1.619-4.182 2.059-6.817.438-2.656.504-4.933.197-6.833-.307-1.898-.944-3.364-1.91-4.396s-2.24-1.548-3.82-1.548c-1.58 0-3.03.516-4.347 1.548-1.317 1.032-2.436 2.498-3.36 4.396-.921 1.9-1.601 4.177-2.041 6.833-.44 2.635-.51 4.907-.213 6.817.296 1.91.933 3.38 1.91 4.412.977 1.032 2.255 1.548 3.836 1.548m-2.24 13.436c-5.487 0-10.005-1.092-13.55-3.277-3.546-2.184-6.032-5.236-7.46-9.154-1.426-3.92-1.711-8.47-.855-13.65.856-5.181 2.645-9.731 5.368-13.65 2.722-3.918 6.224-6.97 10.505-9.154 4.28-2.184 9.176-3.276 14.686-3.276 5.467 0 9.973 1.092 13.518 3.276 3.546 2.185 6.037 5.236 7.476 9.154 1.437 3.919 1.728 8.469.872 13.65-.856 5.18-2.656 9.73-5.4 13.65-2.745 3.918-6.252 6.97-10.522 9.154-4.27 2.185-9.15 3.277-14.637 3.277M702.612 48.974l-4.74 28.452h-18.179l8.43-50.581h17.255l-1.58 9.616h.527c1.602-3.227 3.946-5.746 7.03-7.557 3.084-1.812 6.493-2.717 10.225-2.717 3.578 0 6.553.812 8.924 2.436 2.371 1.625 4.05 3.864 5.04 6.718.986 2.854 1.162 6.125.526 9.813l-5.4 32.272H712.49l4.743-28.452c.416-2.502.114-4.467-.906-5.894-1.02-1.427-2.695-2.141-5.022-2.141-1.472 0-2.815.324-4.034.97-1.219.65-2.229 1.572-3.03 2.768-.8 1.197-1.345 2.629-1.63 4.297M223.738 103.257l2.503-14.753h58.615l-2.501 14.753H262.07l-8.694 52.688h-18.047l8.694-52.688zM294.637 143.431c1.582 0 3.024-.516 4.332-1.548 1.305-1.03 2.425-2.502 3.358-4.412.933-1.91 1.618-4.181 2.058-6.816.439-2.656.505-4.933.197-6.834-.306-1.897-.943-3.364-1.91-4.395-.966-1.032-2.239-1.549-3.82-1.549-1.58 0-3.028.517-4.346 1.549-1.317 1.031-2.436 2.498-3.36 4.395-.922 1.9-1.601 4.178-2.042 6.834-.438 2.635-.51 4.906-.212 6.816.296 1.91.933 3.381 1.91 4.412.976 1.032 2.255 1.548 3.835 1.548m-2.238 13.435c-5.488 0-10.007-1.09-13.55-3.276-3.548-2.184-6.034-5.236-7.46-9.154-1.428-3.918-1.713-8.469-.856-13.65.856-5.18 2.644-9.73 5.368-13.65 2.721-3.917 6.224-6.968 10.505-9.153 4.28-2.184 9.175-3.276 14.685-3.276 5.467 0 9.974 1.092 13.519 3.276 3.546 2.184 6.036 5.236 7.476 9.153 1.436 3.92 1.727 8.47.871 13.65-.856 5.181-2.656 9.732-5.4 13.65-2.745 3.918-6.252 6.97-10.522 9.154-4.27 2.185-9.149 3.276-14.637 3.276M350.712 143.431c1.581 0 3.024-.516 4.331-1.548 1.305-1.03 2.425-2.502 3.358-4.412.933-1.91 1.62-4.181 2.06-6.816.437-2.656.503-4.933.196-6.834-.307-1.897-.944-3.364-1.91-4.395-.966-1.032-2.239-1.549-3.82-1.549-1.58 0-3.029.517-4.347 1.549-1.317 1.031-2.436 2.498-3.359 4.395-.922 1.9-1.602 4.178-2.042 6.834-.439 2.635-.51 4.906-.213 6.816.296 1.91.933 3.381 1.91 4.412.977 1.032 2.256 1.548 3.836 1.548m-2.239 13.435c-5.488 0-10.006-1.09-13.55-3.276-3.547-2.184-6.033-5.236-7.46-9.154-1.427-3.918-1.712-8.469-.856-13.65.856-5.18 2.645-9.73 5.368-13.65 2.722-3.917 6.224-6.968 10.505-9.153 4.281-2.184 9.176-3.276 14.686-3.276 5.467 0 9.973 1.092 13.518 3.276 3.546 2.184 6.037 5.236 7.476 9.153 1.437 3.92 1.728 8.47.872 13.65-.856 5.181-2.656 9.732-5.4 13.65-2.745 3.918-6.252 6.97-10.522 9.154-4.27 2.185-9.149 3.276-14.637 3.276M408.907 88.504l-11.196 67.441h-18.177l11.196-67.441z" fill="currentColor"/></g></svg>
