<svg width="808" height="88" viewBox="0 0 808 88" xmlns="http://www.w3.org/2000/svg"><defs><linearGradient x1="13.35%" y1="19.311%" x2="93.641%" y2="32.845%" id="a"><stop stop-color="#FF6126" offset="0%"/><stop stop-color="#B33100" offset="100%"/></linearGradient><linearGradient x1="93.641%" y1="47.742%" x2="13.35%" y2="45.96%" id="b"><stop stop-color="#B33100" offset="0%"/><stop stop-color="#802300" offset="100%"/></linearGradient></defs><g fill="none" fill-rule="evenodd"><path d="M11.177 10.036 2.124 64.597c-.995 5.993 3.058 11.658 9.051 12.652a11 11 0 0 0 1.8.149h52.723L78.551 0H23.015a12 12 0 0 0-11.838 10.036Z" fill="#EF4923"/><path d="M11.177 10.036 2.124 64.597c-.995 5.993 3.058 11.658 9.051 12.652a11 11 0 0 0 1.8.149h52.723L78.551 0H23.015a12 12 0 0 0-11.838 10.036Z" fill="url(#a)"/><path fill="url(#b)" d="M48.893 10.602h27.898L78.552 0z"/><path d="M48.893 10.602 36.051 88h56.374a11 11 0 0 0 10.851-9.198l9.394-56.561c.905-5.449-2.779-10.599-8.227-11.504a10 10 0 0 0-1.638-.135H48.893Z" fill="url(#a)"/><g fill="currentColor"><path d="m124 25.39 2.453-14.478h57.449L181.45 25.39h-19.881l-8.521 51.705H135.36l8.521-51.705z"/><path d="m169.238 77.095 8.263-49.638h17.3l-1.551 9.437h.516c1.485-3.49 3.346-6.043 5.584-7.66 2.238-1.615 4.68-2.422 7.326-2.422.775 0 1.522.06 2.244.177.721.12 1.435.275 2.146.468l-2.582 15.253c-.839-.322-1.883-.553-3.131-.694a30.345 30.345 0 0 0-3.323-.21c-1.722 0-3.33.393-4.826 1.18-1.495.786-2.765 1.884-3.808 3.296-1.044 1.41-1.739 3.064-2.082 4.96l-4.26 25.853h-17.816ZM228.216 66.625c1.333 0 2.646-.28 3.937-.84a9.278 9.278 0 0 0 3.324-2.424c.925-1.055 1.517-2.338 1.775-3.846l.645-4.137c-.472.195-.995.372-1.564.534-.57.161-1.163.318-1.775.468-.614.151-1.259.292-1.937.42-.678.13-1.372.26-2.082.388-1.42.216-2.614.565-3.583 1.05-.967.485-1.72 1.078-2.259 1.777-.537.7-.87 1.482-1 2.344-.194 1.357.124 2.407.952 3.15.828.744 2.018 1.116 3.567 1.116M220.47 77.87c-3.142 0-5.838-.522-8.086-1.567-2.247-1.045-3.884-2.64-4.905-4.783-1.023-2.143-1.253-4.852-.693-8.127.45-2.714 1.3-5.03 2.549-6.948 1.248-1.917 2.796-3.49 4.647-4.718 1.85-1.228 3.932-2.17 6.246-2.827 2.312-.658 4.76-1.083 7.342-1.277 2.797-.215 5.067-.485 6.81-.808 1.742-.324 3.045-.764 3.905-1.326.86-.559 1.377-1.313 1.55-2.26v-.13c.193-1.293-.145-2.284-1.018-2.974-.871-.689-2.08-1.034-3.63-1.034-1.679 0-3.126.367-4.342 1.1-1.215.732-2.048 1.874-2.5 3.425h-16.396c.688-3.017 2.102-5.8 4.245-8.354 2.14-2.553 4.99-4.6 8.552-6.14 3.56-1.54 7.815-2.31 12.765-2.31 3.528 0 6.626.415 9.295 1.244 2.667.83 4.878 1.982 6.632 3.457 1.754 1.476 2.99 3.2 3.712 5.17.72 1.972.887 4.11.5 6.416l-5.68 33.996h-16.654l1.162-6.98h-.387c-1.292 1.853-2.74 3.35-4.342 4.492a16.451 16.451 0 0 1-5.228 2.488c-1.884.517-3.9.775-6.051.775M281.281 49.174l-4.646 27.92h-17.817l8.263-49.636h16.911l-1.548 9.436h.516c1.57-3.167 3.868-5.639 6.89-7.416 3.023-1.778 6.364-2.666 10.022-2.666 3.507 0 6.422.797 8.746 2.39 2.324 1.595 3.97 3.792 4.939 6.593.967 2.8 1.14 6.01.516 9.63l-5.293 31.67h-17.816l4.648-27.921c.408-2.456.112-4.384-.888-5.784-1-1.4-2.641-2.101-4.922-2.101-1.442 0-2.759.318-3.954.953-1.194.636-2.184 1.541-2.97 2.715-.784 1.175-1.317 2.58-1.597 4.217M365.629 43.616H349.62c.086-1.035-.096-1.918-.548-2.65a4.418 4.418 0 0 0-1.888-1.68c-.806-.389-1.716-.582-2.727-.582-1.764 0-3.368.393-4.81 1.18-1.441.786-2.248 1.814-2.42 3.085-.108.497.054.959.484 1.39.43.431 1.56.83 3.39 1.196l9.81 1.81c4.906.904 8.484 2.547 10.732 4.928 2.248 2.38 3.06 5.52 2.437 9.42-.58 3.382-2.066 6.29-4.454 8.725-2.389 2.434-5.417 4.303-9.086 5.606-3.668 1.303-7.719 1.956-12.15 1.956-7.811 0-13.659-1.562-17.543-4.686-3.884-3.124-5.653-7.207-5.309-12.248h17.3c.043 1.615.586 2.827 1.63 3.636 1.043.807 2.437 1.233 4.179 1.277 1.893.063 3.55-.318 4.971-1.148 1.42-.829 2.215-1.87 2.387-3.118.065-.712-.242-1.25-.919-1.617-.678-.366-1.963-.732-3.857-1.098l-8.52-1.551c-4.906-.883-8.477-2.656-10.715-5.316-2.238-2.66-3.013-6.059-2.325-10.195.56-3.297 1.9-6.065 4.019-8.305 2.119-2.242 4.911-3.938 8.376-5.09 3.463-1.153 7.465-1.73 12.006-1.73 7.423 0 13.044 1.493 16.863 4.476 3.82 2.984 5.384 7.093 4.696 12.329M395.274 10.912l-10.973 66.183h-17.815l10.973-66.183zM412.949 66.625c1.334 0 2.646-.28 3.937-.84a9.278 9.278 0 0 0 3.325-2.424c.925-1.055 1.517-2.338 1.775-3.846l.645-4.137c-.473.195-.995.372-1.565.534-.57.161-1.162.318-1.775.468-.613.151-1.258.292-1.936.42-.679.13-1.373.26-2.082.388-1.42.216-2.614.565-3.583 1.05-.968.485-1.721 1.078-2.26 1.777-.537.7-.87 1.482-1 2.344-.193 1.357.124 2.407.952 3.15.829.744 2.018 1.116 3.567 1.116m-7.746 11.245c-3.142 0-5.837-.522-8.085-1.567-2.248-1.045-3.885-2.64-4.906-4.783-1.022-2.143-1.252-4.852-.693-8.127.451-2.714 1.3-5.03 2.55-6.948 1.247-1.917 2.796-3.49 4.646-4.718 1.851-1.228 3.932-2.17 6.246-2.827 2.312-.658 4.76-1.083 7.342-1.277 2.797-.215 5.067-.485 6.81-.808 1.742-.324 3.045-.764 3.906-1.326.86-.559 1.377-1.313 1.55-2.26v-.13c.192-1.293-.146-2.284-1.018-2.974-.872-.689-2.081-1.034-3.63-1.034-1.68 0-3.126.367-4.342 1.1-1.216.732-2.049 1.874-2.5 3.425h-16.397c.688-3.017 2.103-5.8 4.245-8.354 2.14-2.553 4.99-4.6 8.552-6.14 3.561-1.54 7.816-2.31 12.765-2.31 3.529 0 6.627.415 9.296 1.244 2.666.83 4.877 1.982 6.632 3.457 1.753 1.476 2.99 3.2 3.711 5.17.72 1.972.887 4.11.5 6.416l-5.68 33.996H420.05l1.161-6.98h-.387c-1.29 1.853-2.74 3.35-4.342 4.492a16.451 16.451 0 0 1-5.228 2.488c-1.882.517-3.9.775-6.05.775M473.8 64.029l-2.083 12.51c-.727.186-1.585.387-2.574.604-1.516.334-3.275.555-5.276.663-4.174.194-7.569-.249-10.183-1.325-2.614-1.078-4.422-2.764-5.422-5.058s-1.178-5.165-.533-8.612l3.708-22.427h-6.354l2.195-12.926h6.296l1.966-11.892h17.816l-1.971 11.892h8.555l-2.194 12.926h-8.504l-3.439 20.747c-1.383 6.728 6.977 3.24 7.944 2.914l.053-.016ZM495.286 22.287c-2.41 0-4.358-.802-5.842-2.407s-2.033-3.517-1.646-5.736c.387-2.262 1.571-4.185 3.55-5.77C493.328 6.793 495.522 6 497.933 6c2.43 0 4.368.792 5.81 2.375 1.44 1.584 1.978 3.507 1.613 5.77-.345 2.218-1.501 4.13-3.47 5.735-1.97 1.605-4.17 2.407-6.6 2.407Zm-17.945 54.807 8.263-49.636h17.815l-8.262 49.636H477.34ZM529.122 64.815c1.55 0 2.964-.507 4.245-1.52 1.28-1.011 2.377-2.455 3.291-4.33.915-1.874 1.587-4.103 2.018-6.689.43-2.606.494-4.841.193-6.706-.3-1.862-.925-3.3-1.872-4.314-.946-1.012-2.194-1.519-3.744-1.519-1.548 0-2.968.507-4.26 1.52-1.29 1.012-2.388 2.45-3.292 4.313-.904 1.865-1.57 4.1-2.002 6.706-.43 2.586-.5 4.815-.208 6.69.29 1.874.914 3.318 1.872 4.33.957 1.012 2.21 1.519 3.76 1.519M526.927 78c-5.379 0-9.807-1.072-13.281-3.216-3.476-2.143-5.912-5.138-7.31-8.983-1.4-3.846-1.679-8.311-.84-13.395.84-5.085 2.592-9.55 5.261-13.396 2.668-3.845 6.1-6.839 10.296-8.983 4.196-2.143 8.994-3.215 14.394-3.215 5.358 0 9.774 1.072 13.249 3.215 3.475 2.144 5.917 5.138 7.327 8.983 1.408 3.846 1.694 8.311.855 13.396-.84 5.084-2.603 9.549-5.293 13.395-2.69 3.845-6.127 6.84-10.312 8.983-4.185 2.144-8.967 3.216-14.346 3.216M580.842 49.174l-4.647 27.92h-17.816l8.262-49.636h16.912l-1.549 9.436h.517c1.57-3.167 3.867-5.639 6.89-7.416 3.022-1.778 6.363-2.666 10.021-2.666 3.507 0 6.423.797 8.747 2.39 2.323 1.595 3.969 3.792 4.938 6.593.968 2.8 1.14 6.01.517 9.63l-5.294 31.67h-17.816l4.649-27.921c.407-2.456.111-4.384-.888-5.784-1.001-1.4-2.642-2.101-4.922-2.101-1.443 0-2.76.318-3.954.953-1.195.636-2.185 1.541-2.97 2.715-.785 1.175-1.318 2.58-1.597 4.217"/><g><path d="M622 25.459 624.46 11h57.612l-2.458 14.459h-19.938l-8.545 51.638h-17.738l8.545-51.638zM691.686 64.833c1.554 0 2.972-.506 4.257-1.517 1.283-1.01 2.383-2.453 3.3-4.325.917-1.871 1.592-4.098 2.024-6.68.43-2.604.496-4.835.194-6.697-.302-1.86-.928-3.297-1.878-4.309-.949-1.011-2.2-1.517-3.754-1.517-1.553 0-2.977.506-4.273 1.517-1.294 1.012-2.394 2.448-3.301 4.309-.906 1.862-1.575 4.093-2.007 6.696-.432 2.583-.502 4.81-.21 6.681.291 1.872.917 3.314 1.878 4.325.96 1.011 2.217 1.517 3.77 1.517M689.486 78c-5.395 0-9.835-1.07-13.319-3.21-3.486-2.141-5.93-5.132-7.332-8.972-1.403-3.841-1.683-8.3-.841-13.378.84-5.078 2.6-9.537 5.276-13.378 2.675-3.84 6.117-6.83 10.325-8.972 4.208-2.14 9.019-3.21 14.435-3.21 5.373 0 9.802 1.07 13.286 3.21 3.485 2.142 5.934 5.132 7.348 8.972 1.413 3.84 1.699 8.3.857 13.378-.841 5.077-2.61 9.537-5.307 13.378-2.698 3.84-6.145 6.83-10.342 8.971-4.197 2.142-8.993 3.211-14.387 3.211M746.801 64.833c1.554 0 2.972-.506 4.257-1.517 1.283-1.01 2.384-2.453 3.3-4.325.918-1.871 1.592-4.098 2.024-6.68.43-2.604.496-4.835.194-6.697-.302-1.86-.928-3.297-1.877-4.309-.95-1.011-2.201-1.517-3.755-1.517-1.553 0-2.977.506-4.273 1.517-1.294 1.012-2.394 2.448-3.301 4.309-.906 1.862-1.575 4.093-2.007 6.696-.432 2.583-.501 4.81-.21 6.681.291 1.872.918 3.314 1.878 4.325.96 1.011 2.217 1.517 3.77 1.517M744.601 78c-5.395 0-9.835-1.07-13.32-3.21-3.485-2.141-5.928-5.132-7.33-8.972-1.404-3.841-1.684-8.3-.842-13.378.841-5.078 2.6-9.537 5.276-13.378 2.675-3.84 6.117-6.83 10.325-8.972 4.208-2.14 9.019-3.21 14.435-3.21 5.373 0 9.802 1.07 13.286 3.21 3.486 2.142 5.934 5.132 7.348 8.972 1.413 3.84 1.699 8.3.857 13.378-.84 5.077-2.61 9.537-5.307 13.378-2.698 3.84-6.145 6.83-10.342 8.971C754.79 76.931 749.995 78 744.6 78M804 11l-11.004 66.097H775.13L786.134 11z"/></g></g></g></svg>
