<svg width="740" height="88" viewBox="0 0 740 88" xmlns="http://www.w3.org/2000/svg"><defs><linearGradient x1="13.35%" y1="19.311%" x2="93.641%" y2="32.845%" id="a"><stop stop-color="#FF6126" offset="0%"/><stop stop-color="#B33100" offset="100%"/></linearGradient><linearGradient x1="93.641%" y1="47.742%" x2="13.35%" y2="45.96%" id="b"><stop stop-color="#B33100" offset="0%"/><stop stop-color="#802300" offset="100%"/></linearGradient></defs><g fill="none" fill-rule="evenodd"><path d="M11.177 10.036 2.124 64.597c-.995 5.993 3.058 11.658 9.051 12.652a11 11 0 0 0 1.8.149h52.723L78.551 0H23.015a12 12 0 0 0-11.838 10.036Z" fill="#EF4923"/><path d="M11.177 10.036 2.124 64.597c-.995 5.993 3.058 11.658 9.051 12.652a11 11 0 0 0 1.8.149h52.723L78.551 0H23.015a12 12 0 0 0-11.838 10.036Z" fill="url(#a)"/><path fill="url(#b)" d="M48.893 10.602h27.898L78.552 0z"/><path d="M48.893 10.602 36.051 88h56.374a11 11 0 0 0 10.851-9.198l9.394-56.561c.905-5.449-2.779-10.599-8.227-11.504a10 10 0 0 0-1.638-.135H48.893Z" fill="url(#a)"/><g fill="#000" fill-rule="nonzero"><path d="m556.729 25.295 2.456-14.477h57.52l-2.455 14.477h-19.906L585.813 77h-17.71l8.532-51.705zM624.483 77.905c-5.386 0-9.819-1.072-13.298-3.216-3.48-2.143-5.919-5.138-7.32-8.983-1.4-3.846-1.68-8.31-.84-13.395.84-5.084 2.597-9.55 5.268-13.395 2.671-3.845 6.108-6.84 10.309-8.983 4.2-2.144 9.005-3.216 14.412-3.216 5.365 0 9.786 1.072 13.266 3.216 3.479 2.143 5.924 5.138 7.335 8.983 1.411 3.846 1.697 8.31.857 13.395-.84 5.084-2.607 9.55-5.3 13.395-2.693 3.845-6.135 6.84-10.325 8.983-4.19 2.144-8.978 3.216-14.364 3.216Zm2.197-13.185c1.552 0 2.968-.506 4.25-1.519 1.282-1.012 2.38-2.456 3.296-4.33.916-1.874 1.589-4.104 2.02-6.69.43-2.606.495-4.841.194-6.705-.302-1.863-.927-3.301-1.875-4.314-.948-1.012-2.197-1.519-3.748-1.519-1.551 0-2.973.507-4.266 1.52-1.292 1.012-2.391 2.45-3.296 4.313-.905 1.864-1.573 4.099-2.004 6.706-.43 2.585-.5 4.815-.21 6.69.291 1.873.916 3.317 1.875 4.33.958 1.012 2.213 1.518 3.764 1.518ZM681.358 77.905c-5.386 0-9.819-1.072-13.298-3.216-3.48-2.143-5.919-5.138-7.32-8.983-1.4-3.846-1.68-8.31-.84-13.395.84-5.084 2.597-9.55 5.268-13.395 2.671-3.845 6.108-6.84 10.309-8.983 4.2-2.144 9.005-3.216 14.412-3.216 5.365 0 9.786 1.072 13.266 3.216 3.479 2.143 5.924 5.138 7.335 8.983 1.411 3.846 1.697 8.31.857 13.395-.84 5.084-2.607 9.55-5.3 13.395-2.693 3.845-6.135 6.84-10.325 8.983-4.19 2.144-8.978 3.216-14.364 3.216Zm2.197-13.185c1.552 0 2.968-.506 4.25-1.519 1.282-1.012 2.38-2.456 3.296-4.33.916-1.874 1.589-4.104 2.02-6.69.43-2.606.495-4.841.194-6.705-.302-1.863-.927-3.301-1.875-4.314-.948-1.012-2.197-1.519-3.748-1.519-1.551 0-2.973.507-4.266 1.52-1.292 1.012-2.391 2.45-3.296 4.313-.905 1.864-1.573 4.099-2.004 6.706-.43 2.585-.5 4.815-.21 6.69.291 1.873.916 3.317 1.875 4.33.958 1.012 2.213 1.518 3.764 1.518ZM740.274 10.818 729.287 77h-17.838l10.987-66.182z"/></g><g fill="#000" fill-rule="nonzero"><path d="m123.85 25.295 2.457-14.477h57.52l-2.455 14.477h-19.906L152.935 77h-17.71l8.532-51.705z"/><path d="m170.821 77 8.273-49.636h17.32l-1.55 9.436h.517c1.486-3.49 3.35-6.043 5.59-7.659 2.24-1.616 4.686-2.424 7.336-2.424.775 0 1.524.06 2.246.178.721.119 1.438.275 2.149.469l-2.586 15.252c-.84-.323-1.885-.554-3.134-.694-1.25-.14-2.36-.21-3.329-.21-1.723 0-3.333.393-4.83 1.18-1.498.785-2.77 1.884-3.814 3.295-1.045 1.411-1.74 3.065-2.084 4.96L188.659 77h-17.838ZM222.947 77.776c-3.145 0-5.843-.523-8.095-1.568-2.25-1.045-3.888-2.639-4.911-4.782-1.024-2.144-1.255-4.853-.695-8.128.452-2.714 1.303-5.03 2.553-6.948 1.25-1.917 2.8-3.49 4.653-4.718 1.853-1.228 3.937-2.17 6.253-2.827 2.316-.657 4.767-1.083 7.352-1.277 2.8-.215 5.073-.484 6.818-.807 1.745-.324 3.049-.765 3.91-1.325.862-.56 1.38-1.315 1.552-2.262v-.13c.194-1.292-.146-2.283-1.018-2.973-.873-.69-2.085-1.034-3.636-1.034-1.68 0-3.129.366-4.346 1.099-1.217.732-2.052 1.874-2.505 3.425h-16.416c.69-3.016 2.106-5.8 4.25-8.353 2.143-2.553 4.998-4.6 8.563-6.14 3.566-1.54 7.826-2.31 12.78-2.31 3.534 0 6.636.414 9.308 1.243 2.671.83 4.885 1.982 6.64 3.458 1.756 1.476 2.995 3.2 3.717 5.17.722 1.972.889 4.11.5 6.415L254.488 77h-16.674l1.163-6.98h-.388c-1.293 1.853-2.741 3.35-4.346 4.492A16.49 16.49 0 0 1 229.007 77c-1.885.517-3.905.776-6.06.776Zm7.756-11.246c1.336 0 2.65-.28 3.943-.84a9.287 9.287 0 0 0 3.328-2.424c.926-1.056 1.519-2.337 1.777-3.846l.647-4.136a14.77 14.77 0 0 1-1.568.533c-.57.162-1.163.318-1.777.469-.614.15-1.26.29-1.939.42-.678.13-1.373.258-2.084.388-1.422.215-2.618.565-3.587 1.05-.97.485-1.724 1.077-2.262 1.777a5.002 5.002 0 0 0-1.002 2.343c-.194 1.357.124 2.408.953 3.151.83.743 2.02 1.115 3.571 1.115ZM283.64 49.08 278.985 77h-17.838l8.272-49.636h16.934l-1.551 9.436h.517c1.572-3.167 3.872-5.64 6.899-7.417 3.027-1.777 6.371-2.666 10.034-2.666 3.511 0 6.43.797 8.757 2.392 2.327 1.594 3.975 3.791 4.945 6.592.969 2.8 1.141 6.01.517 9.63L311.172 77h-17.838l4.653-27.92c.41-2.456.113-4.385-.888-5.785-1.002-1.4-2.645-2.1-4.929-2.1-1.443 0-2.763.317-3.958.953-1.196.635-2.187 1.54-2.973 2.714-.787 1.175-1.32 2.58-1.6 4.218ZM370.632 43.521h-16.028c.086-1.034-.097-1.917-.55-2.65a4.41 4.41 0 0 0-1.89-1.68c-.808-.388-1.718-.582-2.73-.582-1.767 0-3.372.394-4.816 1.18-1.443.786-2.251 1.815-2.423 3.086-.108.496.053.959.484 1.39.431.43 1.562.829 3.393 1.195l9.824 1.81c4.912.905 8.494 2.547 10.745 4.928 2.251 2.38 3.065 5.52 2.44 9.42-.582 3.382-2.068 6.29-4.46 8.725-2.39 2.434-5.423 4.303-9.096 5.607-3.673 1.303-7.73 1.955-12.167 1.955-7.82 0-13.675-1.562-17.563-4.686-3.889-3.124-5.661-7.206-5.316-12.247h17.32c.044 1.615.588 2.827 1.633 3.635 1.045.808 2.44 1.233 4.184 1.277 1.896.064 3.555-.318 4.977-1.148 1.422-.83 2.219-1.869 2.391-3.118.065-.711-.242-1.25-.92-1.616-.68-.366-1.966-.732-3.862-1.099l-8.532-1.55c-4.911-.884-8.488-2.656-10.728-5.317-2.24-2.66-3.016-6.059-2.327-10.195.56-3.296 1.901-6.065 4.023-8.305 2.122-2.24 4.918-3.937 8.386-5.09 3.469-1.152 7.476-1.729 12.021-1.729 7.433 0 13.061 1.492 16.885 4.476 3.824 2.984 5.391 7.093 4.702 12.328ZM401.172 10.818 390.185 77h-17.838l10.987-66.182zM410.935 77.776c-3.146 0-5.844-.523-8.095-1.568-2.252-1.045-3.889-2.639-4.912-4.782-1.024-2.144-1.255-4.853-.695-8.128.452-2.714 1.303-5.03 2.553-6.948 1.25-1.917 2.8-3.49 4.653-4.718 1.853-1.228 3.937-2.17 6.253-2.827 2.316-.657 4.767-1.083 7.352-1.277 2.8-.215 5.074-.484 6.819-.807 1.745-.324 3.048-.765 3.91-1.325.861-.56 1.379-1.315 1.55-2.262v-.13c.195-1.292-.145-2.283-1.017-2.973-.873-.69-2.084-1.034-3.636-1.034-1.68 0-3.129.366-4.346 1.099-1.217.732-2.052 1.874-2.504 3.425h-16.417c.69-3.016 2.106-5.8 4.25-8.353 2.143-2.553 4.998-4.6 8.563-6.14 3.566-1.54 7.826-2.31 12.781-2.31 3.533 0 6.636.414 9.307 1.243 2.671.83 4.885 1.982 6.64 3.458 1.757 1.476 2.995 3.2 3.717 5.17.722 1.972.889 4.11.5 6.415L442.475 77H425.8l1.163-6.98h-.388c-1.292 1.853-2.741 3.35-4.346 4.492A16.49 16.49 0 0 1 416.994 77c-1.885.517-3.905.776-6.06.776Zm7.755-11.246c1.336 0 2.65-.28 3.943-.84a9.287 9.287 0 0 0 3.328-2.424c.927-1.056 1.52-2.337 1.778-3.846l.646-4.136a14.77 14.77 0 0 1-1.567.533c-.571.162-1.164.318-1.778.469-.614.15-1.26.29-1.939.42-.678.13-1.373.258-2.084.388-1.422.215-2.617.565-3.587 1.05-.97.485-1.723 1.077-2.262 1.777a5.002 5.002 0 0 0-1.002 2.343c-.194 1.357.124 2.408.953 3.151.83.743 2.02 1.115 3.571 1.115ZM486.88 27.364l-2.198 12.926h-32.703l2.197-12.926h32.703Zm-24.431-11.892h17.838l-7.562 45.564c-.108.69-.086 1.266.065 1.73.15.462.458.807.92 1.033.464.226 1.083.34 1.859.34.517 0 1.152-.07 1.906-.21.755-.14 1.325-.243 1.713-.308l.517 12.539c-.905.258-2.116.555-3.635.888-1.519.334-3.28.555-5.284.663-4.18.194-7.578-.248-10.195-1.325-2.618-1.077-4.427-2.763-5.43-5.057-1.001-2.295-1.179-5.165-.532-8.612l7.82-47.245ZM507.5 77.905c-5.3 0-9.695-1.018-13.185-3.054-3.49-2.036-5.946-4.966-7.368-8.79-1.421-3.824-1.68-8.407-.775-13.75.862-5.127 2.644-9.608 5.348-13.443 2.704-3.835 6.118-6.819 10.244-8.951 4.126-2.133 8.752-3.2 13.88-3.2 3.748 0 7.039.582 9.872 1.745 2.833 1.164 5.143 2.855 6.931 5.074 1.789 2.219 3 4.896 3.636 8.03.635 3.135.63 6.673-.016 10.616l-.647 4.136h-44.336l1.55-9.824h27.921c.216-1.422.081-2.676-.404-3.764a5.492 5.492 0 0 0-2.294-2.553c-1.045-.614-2.3-.921-3.765-.921a9.28 9.28 0 0 0-4.12.937 9.392 9.392 0 0 0-3.264 2.617c-.894 1.12-1.492 2.435-1.793 3.943l-1.94 10.34c-.258 1.595-.16 3.017.292 4.266a5.683 5.683 0 0 0 2.359 2.941c1.12.711 2.563 1.066 4.33 1.066 1.206 0 2.354-.166 3.442-.5a9.061 9.061 0 0 0 2.908-1.487 7.616 7.616 0 0 0 2.052-2.407h16.287c-1.163 3.447-3 6.436-5.51 8.967-2.51 2.531-5.59 4.492-9.242 5.881-3.652 1.39-7.783 2.085-12.393 2.085Z"/></g></g></svg>